<svg xmlns="http://www.w3.org/2000/svg" width="21.682" height="21.677" viewBox="0 0 21.682 21.677">
  <path id="Icon_awesome-instagram" data-name="Icon awesome-instagram" d="M10.838,7.519A5.558,5.558,0,1,0,16.4,13.076,5.549,5.549,0,0,0,10.838,7.519Zm0,9.171a3.613,3.613,0,1,1,3.613-3.613,3.62,3.62,0,0,1-3.613,3.613Zm7.081-9.4a1.3,1.3,0,1,1-1.3-1.3A1.293,1.293,0,0,1,17.92,7.291ZM21.6,8.607A6.415,6.415,0,0,0,19.85,4.065a6.457,6.457,0,0,0-4.542-1.751c-1.79-.1-7.154-.1-8.944,0A6.448,6.448,0,0,0,1.822,4.06,6.436,6.436,0,0,0,.071,8.6c-.1,1.79-.1,7.154,0,8.944a6.415,6.415,0,0,0,1.751,4.542,6.466,6.466,0,0,0,4.542,1.751c1.79.1,7.154.1,8.944,0a6.415,6.415,0,0,0,4.542-1.751A6.457,6.457,0,0,0,21.6,17.546c.1-1.79.1-7.149,0-8.939ZM19.289,19.466a3.658,3.658,0,0,1-2.061,2.061c-1.427.566-4.813.435-6.39.435s-4.968.126-6.39-.435a3.658,3.658,0,0,1-2.061-2.061c-.566-1.427-.435-4.813-.435-6.39s-.126-4.968.435-6.39A3.658,3.658,0,0,1,4.448,4.626c1.427-.566,4.813-.435,6.39-.435s4.968-.126,6.39.435a3.658,3.658,0,0,1,2.061,2.061c.566,1.427.435,4.813.435,6.39S19.855,18.044,19.289,19.466Z" transform="translate(0.005 -2.238)" fill="#fff"/>
</svg>
